<svg version="1.2" xmlns="http://www.w3.org/2000/svg" viewBox="0 0 3240 1080" width="3240" height="1080">
	<title>imalogotipo</title>
	<style>
		.s0 { fill: #d9d9d9 } 
	</style>
	<path id="JESUS SANTIAGO" class="s0" aria-label="JESUS SANTIAGO"  d="m49 539.5q-10.8 0-19-1.2-8-1.3-13.9-3.5v-39.3q6.3 1.6 13.5 2.8 7.2 1.2 15.4 1.2 10.8 0 19.6-4.1 8.8-4.2 13.8-14.9 5.3-10.7 5.3-30.3v-275.7h46.9v274.2q0 31.8-10.2 51.9-10.1 19.9-28.5 29.5-18.3 9.4-42.9 9.4zm317.1-119.1v39.6h-161.7v-285.5h161.7v39.4h-114.8v77.5h107.6v39.3h-107.6v89.7zm226.4-38.1q0 25.4-12.5 43.7-12.3 18.4-35.6 28.1-23 9.8-55.1 9.8-15.6 0-29.8-1.8-14.3-1.7-27-5-12.5-3.5-22.8-8.4v-44.2q17.3 7.6 38.8 13.9 21.5 6.1 43.8 6.1 18.1 0 30-4.7 12.2-4.9 18-13.7 5.9-9 5.9-20.9 0-12.7-6.9-21.5-6.8-8.8-20.7-16-13.6-7.4-34.3-15.8-14.1-5.7-27-12.9-12.7-7.2-22.6-17-10-9.8-15.9-23.1-5.6-13.4-5.6-31.6 0-24.2 11.5-41.4 11.7-17.2 32.8-26.4 21.3-9.1 49.6-9.1 22.5 0 42.2 4.6 19.9 4.7 39.1 13.3l-14.9 37.7q-17.6-7.2-34.2-11.5-16.4-4.3-33.6-4.3-14.8 0-25.2 4.5-10.3 4.5-15.8 12.7-5.2 8-5.2 19.1 0 12.5 6 21.1 6.3 8.4 19.2 15.4 13 7.1 33.5 15.7 23.7 9.7 40.1 20.5 16.6 10.7 25.4 25.8 8.8 14.8 8.8 37.3zm232.6-207.8h46.7v184.7q0 29.9-12.7 53.5-12.5 23.7-37.9 37.5-25.4 13.7-63.9 13.7-54.9 0-83.6-28.7-28.5-28.9-28.5-76.8v-183.9h46.9v179.8q0 35.8 16.8 52.8 16.8 17 50.2 17 23 0 37.5-8 14.6-8.2 21.4-23.9 7.1-15.8 7.1-38.1zm284.4 207.9q0 25.3-12.5 43.7-12.3 18.4-35.6 28.1-23 9.8-55.1 9.8-15.6 0-29.9-1.8-14.2-1.7-26.9-5-12.5-3.6-22.9-8.4v-44.2q17.4 7.6 38.9 13.9 21.5 6 43.8 6 18.1 0 30-4.6 12.1-4.9 18-13.7 5.9-9 5.9-20.9 0-12.7-6.9-21.5-6.8-8.8-20.7-16-13.6-7.4-34.3-15.8-14.1-5.7-27-12.9-12.7-7.3-22.7-17-9.9-9.8-15.8-23.1-5.6-13.4-5.6-31.6 0-24.2 11.5-41.4 11.7-17.2 32.8-26.4 21.3-9.2 49.6-9.2 22.5 0 42.2 4.7 19.9 4.7 39.1 13.3l-14.9 37.7q-17.6-7.2-34.2-11.5-16.4-4.3-33.6-4.3-14.8 0-25.2 4.5-10.3 4.5-15.8 12.7-5.3 8-5.3 19.1 0 12.5 6.1 21.1 6.3 8.4 19.1 15.4 13.1 7.1 33.6 15.7 23.7 9.7 40.1 20.5 16.6 10.7 25.4 25.7 8.8 14.9 8.8 37.4zm323.8 0q0 25.3-12.5 43.7-12.3 18.4-35.6 28.1-23 9.8-55 9.8-15.7 0-29.9-1.8-14.3-1.7-27-5-12.5-3.6-22.8-8.4v-44.2q17.4 7.6 38.8 13.9 21.5 6 43.8 6 18.2 0 30.1-4.6 12.1-4.9 17.9-13.7 5.9-9 5.9-20.9 0-12.7-6.8-21.5-6.9-8.8-20.7-16-13.7-7.4-34.4-15.8-14.1-5.7-27-12.9-12.7-7.3-22.6-17-10-9.8-15.8-23.1-5.7-13.4-5.7-31.6 0-24.2 11.5-41.4 11.7-17.2 32.8-26.4 21.3-9.2 49.6-9.2 22.5 0 42.2 4.7 19.9 4.7 39.1 13.3l-14.9 37.7q-17.5-7.2-34.1-11.5-16.4-4.3-33.6-4.3-14.9 0-25.2 4.5-10.4 4.5-15.9 12.7-5.2 8-5.2 19.1 0 12.5 6 21.1 6.3 8.4 19.2 15.4 13.1 7.1 33.6 15.7 23.6 9.7 40 20.5 16.6 10.7 25.4 25.7 8.8 14.9 8.8 37.4zm281.8 77.7h-49.8l-27.9-79.3h-109.2l-27.9 79.3h-49.4l106.2-286.7h52zm-173.9-119.6h84l-27.1-78.1q-1.6-5.1-4.5-14.2-2.9-9.4-5.9-19-2.9-9.8-4.9-16.4-1.9 8-4.8 18-2.8 9.7-5.5 18.3-2.6 8.6-3.9 13.3zm449.8-166v285.5h-57.6l-139.9-227.9h-1.7q0.7 11.5 1.3 24.4 0.8 12.9 1.2 26.6 0.6 13.7 1 27.7v149.2h-42.6v-285.5h57.2l139.7 226.4h1.3q-0.3-10-0.9-22.9-0.6-12.9-1.2-26.6-0.4-13.8-0.6-26.7v-150.2zm174 39.8v245.7h-47v-245.7h-83.6v-39.8h214v39.8zm173.9 245.7h-46.9v-285.5h46.9zm301.9 0h-49.8l-27.9-79.3h-109.2l-27.9 79.3h-49.4l106.2-286.7h52zm-173.9-119.6h84l-27.1-78.1q-1.6-5.1-4.5-14.2-3-9.4-5.9-19-2.9-9.7-4.9-16.4-1.9 8-4.8 18-2.8 9.7-5.5 18.3-2.6 8.6-3.9 13.3zm326.7 4.5v-40h106.7v143.3q-22.5 7.5-46.5 11.6-24 4.1-53.9 4.1-43.6 0-73.8-17.2-30.1-17.4-45.7-50.2-15.7-33-15.7-79.5 0-44.7 17.4-77.6 17.4-33 50.6-50.9 33.2-18.2 80.5-18.2 23.2 0 44.9 4.7 21.9 4.5 40 12.5l-16.4 38.7q-14.4-6.9-32.4-11.6-18-4.6-37.3-4.6-30.7 0-52.9 13.2-22.1 13.3-34 37.5-11.9 24.1-11.9 56.9 0 31.8 9.5 55.8 9.6 24.1 29.9 37.5 20.5 13.3 52.9 13.3 16.3 0 27.6-1.7 11.3-1.8 20.9-4v-73.6zm428.5-28.1q0 33-8.4 60.1-8.2 27-24.8 46.5-16.6 19.4-41.6 29.9-25 10.6-58.6 10.6-34.2 0-59.4-10.6-25-10.5-41.6-30.1-16.4-19.5-24.6-46.6-8.2-27.2-8.2-60.2 0-44.1 14.5-77 14.6-33 44.3-51.1 29.9-18.4 75.4-18.4 44.5 0 74 18.2 29.5 18.1 44.2 51.1 14.8 32.9 14.8 77.6zm-218 0q0 33 9 57.2 9 24 27.6 37.1 18.7 12.9 48 12.9 29.5 0 48-12.9 18.6-13.1 27.4-37.1 8.8-24.2 8.8-57.2 0-50.2-20.1-78.5-20-28.5-63.7-28.5-29.3 0-48.2 12.8-18.8 12.9-27.8 37-9 23.8-9 57.2z"/>
	<path id="DESARROLLO WEB" class="s0" aria-label="DESARROLLO WEB"  d="m430 740.9q0 36.2-13.5 60.5-13.5 24.1-39.1 36.4-25.6 12.2-61.8 12.2h-59.5v-214.2h65.9q33.3 0 57.5 12.1 24.1 11.8 37.3 35.3 13.2 23.2 13.2 57.7zm-36.6 1q0-26.4-8.4-43.4-8.2-17-24.3-25.2-16-8.3-39.4-8.3h-30v155.6h24.9q38.8 0 58-19.8 19.2-19.8 19.2-58.9zm203.9 78.4v29.7h-121.3v-214.2h121.3v29.6h-86.1v58.2h80.7v29.4h-80.7v67.3zm169.7-28.6q0 19-9.3 32.8-9.3 13.8-26.7 21.1-17.3 7.3-41.3 7.3-11.7 0-22.4-1.3-10.7-1.3-20.2-3.8-9.4-2.6-17.2-6.3v-33.1q13.1 5.7 29.2 10.4 16.1 4.5 32.8 4.5 13.6 0 22.5-3.5 9.1-3.6 13.5-10.2 4.4-6.8 4.4-15.7 0-9.5-5.1-16.1-5.1-6.6-15.5-12-10.3-5.6-25.8-11.9-10.6-4.2-20.2-9.7-9.6-5.4-17-12.7-7.5-7.3-11.9-17.3-4.2-10.1-4.2-23.7 0-18.2 8.6-31.1 8.8-12.9 24.6-19.8 16-6.8 37.2-6.8 16.9 0 31.7 3.5 14.9 3.5 29.3 9.9l-11.2 28.3q-13.2-5.4-25.6-8.6-12.3-3.3-25.2-3.3-11.1 0-18.9 3.4-7.8 3.4-11.9 9.5-3.9 6-3.9 14.4 0 9.4 4.5 15.8 4.7 6.3 14.4 11.6 9.8 5.3 25.2 11.7 17.7 7.3 30 15.4 12.4 8 19 19.3 6.6 11.2 6.6 28zm211.4 58.3h-37.3l-21-59.5h-81.9l-20.9 59.5h-37.1l79.7-215h39zm-130.4-89.7h63l-20.4-58.6q-1.2-3.8-3.3-10.7-2.2-7-4.4-14.2-2.2-7.3-3.7-12.3-1.5 6-3.7 13.5-2 7.3-4.1 13.8-1.9 6.4-2.9 9.9zm158.6-124.5h60.3q27.6 0 45.7 6.7 18.1 6.8 26.9 20.6 8.9 13.7 8.9 35 0 15.8-5.8 26.9-5.9 11.1-15.4 18.5-9.5 7.3-20.4 11.7l60.8 94.8h-39.7l-51.7-85.9h-34.4v85.9h-35.2zm57.9 29.3h-22.7v70h24.3q24.5 0 35.5-9.1 11.1-9.1 11.1-26.8 0-18.6-11.9-26.4-11.7-7.7-36.3-7.7zm133.7-29.3h60.3q27.6 0 45.7 6.7 18.1 6.7 26.9 20.5 8.9 13.8 8.9 35 0 15.8-5.8 27-5.9 11.1-15.4 18.4-9.5 7.4-20.4 11.8l60.8 94.7h-39.7l-51.7-85.8h-34.4v85.8h-35.2zm57.9 29.3h-22.7v70h24.3q24.5 0 35.5-9 11.1-9.1 11.1-26.8 0-18.6-11.9-26.4-11.7-7.8-36.3-7.8zm323.9 77.5q0 24.8-6.3 45.1-6.2 20.2-18.6 34.9-12.5 14.5-31.2 22.4-18.8 7.9-44 7.9-25.6 0-44.5-7.9-18.7-7.9-31.2-22.6-12.3-14.6-18.5-35-6.1-20.3-6.1-45.1 0-33.1 10.8-57.7 11-24.7 33.3-38.4 22.4-13.7 56.5-13.7 33.4 0 55.5 13.6 22.2 13.6 33.2 38.4 11.1 24.6 11.1 58.1zm-163.5 0q0 24.8 6.7 42.9 6.8 18.1 20.7 27.9 14.1 9.6 36 9.6 22.2 0 36.1-9.6 13.9-9.8 20.5-27.9 6.6-18.1 6.6-42.9 0-37.6-15.1-58.9-15-21.4-47.8-21.4-21.9 0-36.2 9.7-14 9.7-20.8 27.7-6.7 17.9-6.7 42.9zm335.6 107.4h-126.1v-214.2h35.1v184.3h91zm163 0h-126.1v-214.2h35.2v184.3h90.9zm227.1-107.4q0 24.8-6.3 45.2-6.2 20.2-18.6 34.8-12.5 14.5-31.2 22.4-18.8 8-44 8-25.6 0-44.5-8-18.7-7.9-31.2-22.5-12.3-14.7-18.4-35-6.2-20.4-6.2-45.1 0-33.1 10.8-57.8 11-24.7 33.3-38.3 22.4-13.8 56.5-13.8 33.4 0 55.6 13.6 22.1 13.6 33.1 38.4 11.1 24.6 11.1 58.1zm-163.5 0q0 24.8 6.8 43 6.7 18 20.6 27.8 14.1 9.7 36 9.7 22.2 0 36.1-9.7 13.9-9.8 20.5-27.8 6.6-18.2 6.6-43 0-37.6-15.1-58.8-15-21.4-47.8-21.4-21.9 0-36.1 9.6-14.1 9.7-20.8 27.7-6.8 17.9-6.8 42.9zm505.2-106.7h35.5l-56 214.1h-38.3l-35.8-128.3q-1.3-4.7-2.9-11.1-1.6-6.5-3.2-13.2-1.5-6.8-2.7-12.3-1-5.7-1.4-8.8-0.3 3.1-1.4 8.6-1 5.6-2.5 12.3-1.3 6.6-2.9 13.2-1.6 6.5-2.9 11.4l-35.2 128.2h-38.2l-55.8-214.1h35.3l30.9 125.5q1.5 6 2.9 13 1.6 6.9 3 14 1.4 7 2.6 13.7 1.2 6.6 1.9 12 0.7-5.5 1.9-12.3 1.2-6.9 2.5-13.9 1.5-7.2 2.9-13.8 1.6-6.5 3.2-11.8l34.9-126.4h34.3l35.6 126.8q1.6 5.4 3.1 12.2 1.6 6.7 3 13.7 1.5 7.1 2.7 13.7 1.1 6.6 1.9 11.8 1-7.1 2.6-16.4 1.6-9.2 3.7-18.7 2-9.5 4.1-17.6zm187 184.4v29.8h-121.3v-214.2h121.3v29.6h-86.1v58.1h80.7v29.5h-80.7v67.2zm46.1 29.8v-214.2h63.8q41.4 0 62.5 12 21.1 12 21.1 41.5 0 12.3-4.4 22.2-4.2 9.8-12.4 16.3-8.2 6.3-20.2 8.5v1.5q12.4 2.1 22.1 7.7 9.8 5.6 15.4 16 5.7 10.4 5.7 26.9 0 19.7-9.4 33.4-9.2 13.8-26.5 21-17.2 7.2-40.7 7.2zm35.1-185.1v59.2h33.7q23.9 0 33.1-7.7 9.2-7.8 9.2-22.7 0-15.3-11-22-10.8-6.8-34.5-6.8zm35.3 87.6h-35.3v68h37q24.6 0 34.6-9.5 10-9.5 10-25.8 0-9.9-4.6-17.3-4.4-7.3-14.5-11.3-10.1-4.1-27.2-4.1z"/>
</svg>